<svg aria-hidden="true" style="position: absolute; width: 0; height: 0; overflow: hidden;" version="1.1" xmlns="http://www.w3.org/2000/svg" xmlns:xlink="http://www.w3.org/1999/xlink">
<defs>
<symbol id="vector-github-logo-text" viewBox="0 0 113 32">
<path d="M21.629 12.997h-9.436c-0.243 0-0.441 0.198-0.441 0.441v4.614c0 0.244 0.198 0.441 0.441 0.441h3.681v5.732c0 0-0.826 0.282-3.112 0.282-2.696 0-6.462-0.985-6.462-9.267 0-8.284 3.922-9.373 7.604-9.373 3.187 0 4.56 0.561 5.434 0.832 0.275 0.084 0.528-0.189 0.528-0.433l1.053-4.458c0-0.114-0.039-0.251-0.168-0.345-0.355-0.253-2.519-1.464-7.988-1.464-6.299 0-12.762 2.68-12.762 15.564s7.398 14.804 13.633 14.804c5.162 0 8.294-2.206 8.294-2.206 0.129-0.071 0.143-0.252 0.143-0.334v-14.389c0-0.243-0.197-0.441-0.441-0.441z"></path>
<path d="M70.26 1.543c0-0.245-0.195-0.444-0.438-0.444h-5.313c-0.243 0-0.44 0.198-0.44 0.444 0 0.001 0.001 10.268 0.001 10.268h-8.282v-10.268c0-0.245-0.195-0.444-0.439-0.444h-5.313c-0.242 0-0.439 0.198-0.439 0.444v27.803c0 0.245 0.197 0.445 0.439 0.445h5.313c0.243 0 0.439-0.2 0.439-0.445v-11.893h8.282c0 0-0.014 11.892-0.014 11.893 0 0.245 0.197 0.445 0.44 0.445h5.326c0.243 0 0.438-0.2 0.438-0.445v-27.803z"></path>
<path d="M31.655 5.191c0-1.913-1.534-3.459-3.427-3.459-1.891 0-3.425 1.546-3.425 3.459 0 1.911 1.535 3.461 3.425 3.461 1.893 0 3.427-1.55 3.427-3.461z"></path>
<path d="M31.275 29.076v-18.43c0-0.243-0.196-0.443-0.44-0.443h-5.296c-0.243 0-0.46 0.25-0.46 0.494v18.387c0 0.54 0.337 0.701 0.773 0.701h4.772c0.523 0 0.652-0.257 0.652-0.71z"></path>
<path d="M90.453 10.246h-5.272c-0.242 0-0.439 0.199-0.439 0.445v13.633c0 0-1.34 0.98-3.241 0.98s-2.406-0.863-2.406-2.724v-11.889c0-0.245-0.196-0.445-0.438-0.445h-5.351c-0.241 0-0.439 0.199-0.439 0.445v12.789c0 5.529 3.082 6.882 7.321 6.882 3.478 0 6.282-1.921 6.282-1.921s0.133 1.013 0.194 1.133c0.060 0.12 0.218 0.241 0.388 0.241l3.404-0.015c0.241 0 0.439-0.2 0.439-0.444l-0.002-18.664c0-0.245-0.197-0.445-0.44-0.445z"></path>
<path d="M102.785 25.286c-1.829-0.056-3.069-0.885-3.069-0.885v-8.805c0 0 1.224-0.75 2.725-0.884 1.899-0.17 3.728 0.403 3.728 4.933 0 4.776-0.826 5.719-3.384 5.642zM104.864 9.621c-2.995 0-5.031 1.336-5.031 1.336v-9.415c0-0.245-0.196-0.444-0.438-0.444h-5.329c-0.242 0-0.439 0.198-0.439 0.444v27.803c0 0.245 0.197 0.445 0.44 0.445h3.697c0.166 0 0.292-0.086 0.386-0.236 0.092-0.149 0.224-1.282 0.224-1.282s2.179 2.065 6.303 2.065c4.842 0 7.619-2.456 7.619-11.026s-4.435-9.69-7.432-9.69z"></path>
<path d="M46.546 10.201h-3.986c0 0-0.006-5.264-0.006-5.266 0-0.199-0.103-0.299-0.333-0.299h-5.431c-0.211 0-0.325 0.093-0.325 0.296v5.441c0 0-2.722 0.657-2.906 0.71s-0.318 0.222-0.318 0.424v3.419c0 0.246 0.196 0.444 0.439 0.444h2.785v8.226c0 6.11 4.286 6.71 7.177 6.71 1.322 0 2.902-0.424 3.163-0.521 0.158-0.058 0.25-0.221 0.25-0.398l0.004-3.762c0-0.245-0.207-0.444-0.441-0.444s-0.827 0.094-1.438 0.094c-1.958 0-2.621-0.91-2.621-2.088s-0-7.817-0-7.817h3.986c0.243 0 0.44-0.199 0.44-0.444v-4.283c0-0.245-0.197-0.443-0.44-0.443z"></path>
</symbol>
<symbol id="vector-github-logo" viewBox="0 0 33 32">
<path d="M16.207 0.003c-8.95 0-16.207 7.256-16.207 16.207 0 7.16 4.644 13.236 11.083 15.379 0.81 0.15 1.107-0.352 1.107-0.78 0-0.386-0.015-1.663-0.022-3.017-4.509 0.98-5.46-1.912-5.46-1.912-0.737-1.873-1.8-2.371-1.8-2.371-1.47-1.006 0.111-0.985 0.111-0.985 1.627 0.114 2.484 1.67 2.484 1.67 1.445 2.477 3.791 1.761 4.716 1.347 0.146-1.047 0.565-1.762 1.029-2.167-3.6-0.41-7.384-1.8-7.384-8.010 0-1.769 0.633-3.215 1.67-4.35-0.168-0.408-0.723-2.057 0.157-4.289 0 0 1.361-0.435 4.458 1.662 1.293-0.359 2.679-0.539 4.057-0.546 1.377 0.006 2.765 0.187 4.060 0.546 3.093-2.097 4.452-1.662 4.452-1.662 0.882 2.232 0.327 3.881 0.159 4.289 1.039 1.135 1.668 2.581 1.668 4.35 0 6.225-3.791 7.595-7.4 7.997 0.581 0.503 1.099 1.489 1.099 3.001 0 2.169-0.019 3.914-0.019 4.448 0 0.432 0.291 0.937 1.113 0.778 6.436-2.145 11.074-8.218 11.074-15.377 0-8.951-7.256-16.207-16.207-16.207z"></path>
</symbol>
<symbol id="vector-twitter" viewBox="0 0 39 32">
<path d="M34.816 8.046c0.024 0.34 0.024 0.681 0.024 1.024 0 10.467-7.969 22.54-22.54 22.54v-0.006c-4.304 0.006-8.519-1.227-12.143-3.551 0.626 0.075 1.255 0.113 1.885 0.114 3.567 0.003 7.032-1.194 9.838-3.398-3.39-0.064-6.362-2.274-7.401-5.501 1.187 0.229 2.411 0.182 3.576-0.136-3.696-0.747-6.354-3.994-6.354-7.765 0-0.034 0-0.067 0-0.1 1.101 0.613 2.334 0.954 3.595 0.991-3.481-2.326-4.554-6.957-2.452-10.577 4.022 4.949 9.956 7.958 16.326 8.276-0.638-2.751 0.234-5.635 2.292-7.569 3.191-2.999 8.209-2.845 11.208 0.344 1.774-0.35 3.474-1.001 5.031-1.923-0.591 1.834-1.829 3.391-3.482 4.381 1.57-0.185 3.104-0.606 4.549-1.247-1.064 1.594-2.403 2.982-3.953 4.104z"></path>
</symbol>
<symbol id="vector-arrow" viewBox="0 0 32 32">
<path d="M30.993 5.333l-14.993 19.165-14.959-19.165-1.041 0.825 16 20.508 16-20.521-1.007-0.812z"></path>
</symbol>
<symbol id="vector-mail" viewBox="0 0 32 32">
<path d="M32 0l-8 29.333-10.839-9.652 10.403-10.979-13.944 9.636-9.62-2.339 32-16zM12 22.224v9.776l4.344-5.908-4.344-3.868z"></path>
</symbol>
</defs>
</svg>
