<!-- Generated by IcoMoon.io -->
<svg version="1.1" xmlns="http://www.w3.org/2000/svg" width="113" height="32" viewBox="0 0 113 32">
<title>github-logo-text</title>
<path d="M21.629 12.997h-9.436c-0.243 0-0.441 0.198-0.441 0.441v4.614c0 0.244 0.198 0.441 0.441 0.441h3.681v5.732c0 0-0.826 0.282-3.112 0.282-2.696 0-6.462-0.985-6.462-9.267 0-8.284 3.922-9.373 7.604-9.373 3.187 0 4.56 0.561 5.434 0.832 0.275 0.084 0.528-0.189 0.528-0.433l1.053-4.458c0-0.114-0.039-0.251-0.168-0.345-0.355-0.253-2.519-1.464-7.988-1.464-6.299 0-12.762 2.68-12.762 15.564s7.398 14.804 13.633 14.804c5.162 0 8.294-2.206 8.294-2.206 0.129-0.071 0.143-0.252 0.143-0.334v-14.389c0-0.243-0.197-0.441-0.441-0.441z"></path>
<path d="M70.26 1.543c0-0.245-0.195-0.444-0.438-0.444h-5.313c-0.243 0-0.44 0.198-0.44 0.444 0 0.001 0.001 10.268 0.001 10.268h-8.282v-10.268c0-0.245-0.195-0.444-0.439-0.444h-5.313c-0.242 0-0.439 0.198-0.439 0.444v27.803c0 0.245 0.197 0.445 0.439 0.445h5.313c0.243 0 0.439-0.2 0.439-0.445v-11.893h8.282c0 0-0.014 11.892-0.014 11.893 0 0.245 0.197 0.445 0.44 0.445h5.326c0.243 0 0.438-0.2 0.438-0.445v-27.803z"></path>
<path d="M31.655 5.191c0-1.913-1.534-3.459-3.427-3.459-1.891 0-3.425 1.546-3.425 3.459 0 1.911 1.535 3.461 3.425 3.461 1.893 0 3.427-1.55 3.427-3.461z"></path>
<path d="M31.275 29.076v-18.43c0-0.243-0.196-0.443-0.44-0.443h-5.296c-0.243 0-0.46 0.25-0.46 0.494v18.387c0 0.54 0.337 0.701 0.773 0.701h4.772c0.523 0 0.652-0.257 0.652-0.71z"></path>
<path d="M90.453 10.246h-5.272c-0.242 0-0.439 0.199-0.439 0.445v13.633c0 0-1.34 0.98-3.241 0.98s-2.406-0.863-2.406-2.724v-11.889c0-0.245-0.196-0.445-0.438-0.445h-5.351c-0.241 0-0.439 0.199-0.439 0.445v12.789c0 5.529 3.082 6.882 7.321 6.882 3.478 0 6.282-1.921 6.282-1.921s0.133 1.013 0.194 1.133c0.060 0.12 0.218 0.241 0.388 0.241l3.404-0.015c0.241 0 0.439-0.2 0.439-0.444l-0.002-18.664c0-0.245-0.197-0.445-0.44-0.445z"></path>
<path d="M102.785 25.286c-1.829-0.056-3.069-0.885-3.069-0.885v-8.805c0 0 1.224-0.75 2.725-0.884 1.899-0.17 3.728 0.403 3.728 4.933 0 4.776-0.826 5.719-3.384 5.642zM104.864 9.621c-2.995 0-5.031 1.336-5.031 1.336v-9.415c0-0.245-0.196-0.444-0.438-0.444h-5.329c-0.242 0-0.439 0.198-0.439 0.444v27.803c0 0.245 0.197 0.445 0.44 0.445h3.697c0.166 0 0.292-0.086 0.386-0.236 0.092-0.149 0.224-1.282 0.224-1.282s2.179 2.065 6.303 2.065c4.842 0 7.619-2.456 7.619-11.026s-4.435-9.69-7.432-9.69z"></path>
<path d="M46.546 10.201h-3.986c0 0-0.006-5.264-0.006-5.266 0-0.199-0.103-0.299-0.333-0.299h-5.431c-0.211 0-0.325 0.093-0.325 0.296v5.441c0 0-2.722 0.657-2.906 0.71s-0.318 0.222-0.318 0.424v3.419c0 0.246 0.196 0.444 0.439 0.444h2.785v8.226c0 6.11 4.286 6.71 7.177 6.71 1.322 0 2.902-0.424 3.163-0.521 0.158-0.058 0.25-0.221 0.25-0.398l0.004-3.762c0-0.245-0.207-0.444-0.441-0.444s-0.827 0.094-1.438 0.094c-1.958 0-2.621-0.91-2.621-2.088s-0-7.817-0-7.817h3.986c0.243 0 0.44-0.199 0.44-0.444v-4.283c0-0.245-0.197-0.443-0.44-0.443z"></path>
</svg>
