<!-- Generated by IcoMoon.io -->
<svg version="1.1" xmlns="http://www.w3.org/2000/svg" width="33" height="32" viewBox="0 0 33 32">
<title>github-logo</title>
<path d="M16.207 0.003c-8.95 0-16.207 7.256-16.207 16.207 0 7.16 4.644 13.236 11.083 15.379 0.81 0.15 1.107-0.352 1.107-0.78 0-0.386-0.015-1.663-0.022-3.017-4.509 0.98-5.46-1.912-5.46-1.912-0.737-1.873-1.8-2.371-1.8-2.371-1.47-1.006 0.111-0.985 0.111-0.985 1.627 0.114 2.484 1.67 2.484 1.67 1.445 2.477 3.791 1.761 4.716 1.347 0.146-1.047 0.565-1.762 1.029-2.167-3.6-0.41-7.384-1.8-7.384-8.010 0-1.769 0.633-3.215 1.67-4.35-0.168-0.408-0.723-2.057 0.157-4.289 0 0 1.361-0.435 4.458 1.662 1.293-0.359 2.679-0.539 4.057-0.546 1.377 0.006 2.765 0.187 4.060 0.546 3.093-2.097 4.452-1.662 4.452-1.662 0.882 2.232 0.327 3.881 0.159 4.289 1.039 1.135 1.668 2.581 1.668 4.35 0 6.225-3.791 7.595-7.4 7.997 0.581 0.503 1.099 1.489 1.099 3.001 0 2.169-0.019 3.914-0.019 4.448 0 0.432 0.291 0.937 1.113 0.778 6.436-2.145 11.074-8.218 11.074-15.377 0-8.951-7.256-16.207-16.207-16.207z"></path>
</svg>
