<!-- Generated by IcoMoon.io -->
<svg version="1.1" xmlns="http://www.w3.org/2000/svg" width="39" height="32" viewBox="0 0 39 32">
<title>twitter</title>
<path d="M34.816 8.046c0.024 0.34 0.024 0.681 0.024 1.024 0 10.467-7.969 22.54-22.54 22.54v-0.006c-4.304 0.006-8.519-1.227-12.143-3.551 0.626 0.075 1.255 0.113 1.885 0.114 3.567 0.003 7.032-1.194 9.838-3.398-3.39-0.064-6.362-2.274-7.401-5.501 1.187 0.229 2.411 0.182 3.576-0.136-3.696-0.747-6.354-3.994-6.354-7.765 0-0.034 0-0.067 0-0.1 1.101 0.613 2.334 0.954 3.595 0.991-3.481-2.326-4.554-6.957-2.452-10.577 4.022 4.949 9.956 7.958 16.326 8.276-0.638-2.751 0.234-5.635 2.292-7.569 3.191-2.999 8.209-2.845 11.208 0.344 1.774-0.35 3.474-1.001 5.031-1.923-0.591 1.834-1.829 3.391-3.482 4.381 1.57-0.185 3.104-0.606 4.549-1.247-1.064 1.594-2.403 2.982-3.953 4.104z"></path>
</svg>
